# File created by Blade
# Date/Time:  Thu Sep 25 17:43:48 2014
# Frame Rate: 120.000 fps
#------------------------------------------------------
:FULLY-SPECIFIED
:DEGREES
148
root -21.030051 32.605642 1.155035 -346.776970 -102.430407 -4.266420
Spine -0.443564 0.164911 -0.246941
Head -9.313720 8.168465 7.286608
LeftShoulder -4.963884 11.894581 14.757563
LeftArm 60.169857 40.699659 -53.445497
LeftForeArm 22.829084 -0.000000 54.756576
LeftHand -30.500480 -0.000000 -1.257883
LeftHandThumb1 -26.253704 0.000000 33.147579
RightShoulder -15.500252 8.300272 -24.606105
RightArm -16.692350 -32.890077 89.479076
RightForeArm -18.607830 -0.000000 26.086077
RightHand -6.315164 0.000000 7.710474
RightHandThumb1 -24.326973 -0.000000 -32.862282
LeftUpLeg 2.372627 -5.032740 -10.148387
LeftLeg 2.271421 -0.000000 -0.000000
LeftFoot -10.216491 16.969979 347.523627
LeftToeBase -3.180385 -0.000000 0.000000
RightUpLeg -32.336136 -6.755783 2.713778
RightLeg 10.372195 -0.000000 -0.000000
RightFoot -4.039276 0.557774 -1.938642
RightToeBase -7.402667 -0.000000 0.000000
149
root -21.322887 32.551557 1.120233 -346.184016 -101.957571 -5.070879
Spine -0.598805 0.145409 -0.421675
Head -9.134235 7.770455 7.539861
LeftShoulder -4.802006 12.245437 14.703339
LeftArm 60.122609 41.473544 -52.780029
LeftForeArm 22.039558 -0.000000 53.591347
LeftHand -30.071207 -0.000000 -1.560225
LeftHandThumb1 -26.253704 0.000000 33.147579
RightShoulder -15.545668 8.169025 -24.514122
RightArm -17.062156 -32.803792 89.687147
RightForeArm -18.840910 -0.000000 25.874757
RightHand -6.243765 -0.000000 7.905875
RightHandThumb1 -24.326973 -0.000000 -32.862282
LeftUpLeg 3.127766 -5.134007 -10.294450
LeftLeg 2.315719 -0.000000 -0.000000
LeftFoot -10.472128 16.607450 347.489852
LeftToeBase -3.352625 -0.000000 0.000000
RightUpLeg -31.954467 -7.080933 2.909898
RightLeg 8.659483 -0.000000 -0.000000
RightFoot -3.757548 1.728576 -1.390919
RightToeBase -7.961811 -0.000000 0.000000
150
root -21.601068 32.504779 1.076150 -345.251420 -101.551234 -6.232799
Spine -0.649531 0.140437 -0.797844
Head -9.080923 7.406671 8.006442
LeftShoulder -4.629801 12.577887 14.746695
LeftArm 60.033916 42.087761 -52.245789
LeftForeArm 21.175844 -0.000000 52.171963
LeftHand -29.595219 -0.000000 -2.019359
LeftHandThumb1 -26.253704 0.000000 33.147579
RightShoulder -15.679748 8.027449 -24.290856
RightArm -17.243007 -32.959051 89.862279
RightForeArm -18.536844 -0.000000 25.727265
RightHand -6.536754 -0.000000 8.267618
RightHandThumb1 -24.326973 -0.000000 -32.862282
LeftUpLeg 3.827159 -5.272563 -10.456749
LeftLeg 2.407187 -0.000000 -0.000000
LeftFoot -10.652077 16.251299 347.362913
LeftToeBase -3.829684 -0.000000 0.000000
RightUpLeg -31.553414 -7.106202 2.944815
RightLeg 7.111259 -0.000000 -0.000000
RightFoot -3.794975 2.573469 -0.991500
RightToeBase -8.040354 -0.000000 0.000000
151
root -21.878703 32.457765 1.031551 -344.698704 -101.154213 -6.875573
Spine -0.883666 0.094472 -0.938367
Head -8.977111 7.039352 8.224017
LeftShoulder -4.553544 12.987871 14.598790
LeftArm 59.950765 42.716719 -51.560899
LeftForeArm 20.199552 0.000000 50.749496
LeftHand -29.212384 0.000000 -2.059765
LeftHandThumb1 -26.253704 0.000000 33.147579
RightShoulder -15.753551 7.866540 -24.210674
RightArm -17.457158 -33.007231 90.096996
RightForeArm -18.531167 0.000000 25.512279
RightHand -6.557792 -0.000000 8.617644
RightHandThumb1 -24.326973 -0.000000 -32.862282
LeftUpLeg 4.392266 -5.691754 -10.512666
LeftLeg 2.523843 -0.000000 -0.000000
LeftFoot -10.830022 15.816980 346.622744
LeftToeBase -5.141690 -0.000000 0.000000
RightUpLeg -31.353247 -7.320664 3.212736
RightLeg 5.732023 -0.000000 -0.000000
RightFoot -3.714961 3.697311 -0.143598
RightToeBase -8.539150 -0.000000 0.000000
